<svg id="flat" height="512" viewBox="0 0 512 512" width="512" xmlns="http://www.w3.org/2000/svg"><path d="m264 328h192v160h-192z" fill="#4e96ed"/><path d="m304 328-40 48v-48z" fill="#cad8ed"/><path d="m200 328h64v160h-64z" fill="#e4e9f2"/><path d="m488 328h-464l24-32h416z" fill="#ed6445"/><path d="m48 168h240v128h-240z" fill="#e4e9f2"/><path d="m240 168h48v128h-48z" fill="#cad8ed"/><path d="m296 168h-272l48-48h280z" fill="#ed6445"/><path d="m266 296-24 32h-20l24-32z" fill="#de402f"/><path d="m224 328h16v160h-16z" fill="#cad8ed"/><path d="m464 296v-96l-104-80-104 80v96z" fill="#e4e9f2"/><path d="m456 328h32v160h-32z" fill="#e4e9f2"/><path d="m312 200h32v64h-32z" fill="#96cffa"/><path d="m176 200h32v64h-32z" fill="#96cffa"/><path d="m376 200h32v64h-32z" fill="#96cffa"/><g fill="#407de6"><path d="m408 448h24v16h-24z"/><path d="m288 448h104v16h-104z"/><path d="m328 416h104v16h-104z"/><path d="m288 416h24v16h-24z"/><path d="m368 384h64v16h-64z"/><path d="m288 384h64v16h-64z"/><path d="m312 352h96v16h-96z"/></g><path d="m56 328h144v160h-144z" fill="#cad8ed"/><path d="m24 328h32v160h-32z" fill="#e4e9f2"/><path d="m96 328-40 48v-48z" fill="#a6bce3"/><path d="m200 376-40-48h40z" fill="#a6bce3"/><path d="m96 376h64v64h-64z" fill="#96cffa"/><path d="m160 400h-24v-24h-16v24h-24v16h24v24h16v-24h24z" fill="#7ab8f5"/><path d="m80 200h64v64h-64z" fill="#96cffa"/><path d="m144 224h-24v-24h-16v24h-24v16h24v24h16v-24h24z" fill="#7ab8f5"/><circle cx="168" cy="112" fill="#90d4b1" r="16"/><path d="m190.627 89.37256a32.03555 32.03555 0 0 0 -45.2539 0l-11.31451-11.31348a48.00019 48.00019 0 0 1 67.88282 0z" fill="#90d4b1"/><path d="m207.59766 72.40186a55.99961 55.99961 0 0 0 -79.19532 0l-11.31445-11.31348a72.00085 72.00085 0 0 1 101.82422 0z" fill="#90d4b1"/><path d="m224.56836 55.43115a80.09125 80.09125 0 0 0 -113.13672 0l-11.31445-11.31347a96.10959 96.10959 0 0 1 135.76562 0z" fill="#90d4b1"/><path d="m360 136-104 80h-16v-24l120-96 120 96v24h-16z" fill="#f28868"/><path d="m456 376-40-48h40z" fill="#cad8ed"/><path d="m72 440h112v16h-112z" fill="#a6bce3"/></svg>