<?xml version="1.0"?>
<svg xmlns="http://www.w3.org/2000/svg" xmlns:xlink="http://www.w3.org/1999/xlink" xmlns:svgjs="http://svgjs.com/svgjs" version="1.1" width="512" height="512" x="0" y="0" viewBox="0 0 512 512" style="enable-background:new 0 0 512 512" xml:space="preserve" class=""><g><g xmlns="http://www.w3.org/2000/svg"><path d="m376 512c8.291 0 15-6.709 15-15s-6.709-15-15-15h-49.18l-9.999-30h-121.641l-9.999 30h-49.181c-8.291 0-15 6.709-15 15s6.709 15 15 15z" fill="#ffffff" data-original="#000000" style="" class=""/><path d="m271 166c0-8.276-6.738-15-15-15h-150c-8.262 0-15 6.724-15 15v15h180z" fill="#ffffff" data-original="#000000" style="" class=""/><path d="m346 301h-180c-8.262 0-15 6.724-15 15s6.738 15 15 15h180c8.262 0 15-6.724 15-15s-6.738-15-15-15z" fill="#ffffff" data-original="#000000" style="" class=""/><path d="m121 91h120v30h-120z" fill="#ffffff" data-original="#000000" style="" class=""/><path d="m497 0h-482c-8.291 0-15 6.709-15 15v392c0 8.291 6.709 15 15 15h482c8.291 0 15-6.709 15-15v-392c0-8.291-6.709-15-15-15zm-391 241c-8.291 0-15-6.709-15-15v-15h-15c-8.291 0-15-6.709-15-15v-30c0-19.53 12.578-36.024 30-42.237v-47.763c0-8.291 6.709-15 15-15h150c8.291 0 15 6.709 15 15v47.763c17.422 6.213 30 22.707 30 42.237v30c0 8.291-6.709 15-15 15h-15v15c0 8.291-6.709 15-15 15s-15-6.709-15-15v-15h-120v15c0 8.291-6.709 15-15 15zm240 120h-180c-24.814 0-45-20.186-45-45s20.186-45 45-45h180c24.814 0 45 20.186 45 45s-20.186 45-45 45zm90-180h-90c-8.291 0-15-6.709-15-15s6.709-15 15-15h90c8.291 0 15 6.709 15 15s-6.709 15-15 15zm0-60h-90c-8.291 0-15-6.709-15-15s6.709-15 15-15h90c8.291 0 15 6.709 15 15s-6.709 15-15 15z" fill="#ffffff" data-original="#000000" style="" class=""/></g></g></svg>
